<svg width="141" height="66" viewBox="0 0 141 66" fill="none" xmlns="http://www.w3.org/2000/svg">
<path d="M1.45022 22.735C1.26731 22.4476 1.09747 22.0556 0.940685 21.5592C0.783905 21.0627 0.705514 20.5401 0.705514 19.9914C0.705514 18.9723 0.92762 18.2406 1.37183 17.7964C1.84218 17.3522 2.44317 17.1301 3.17481 17.1301H20.2639C20.4468 17.4175 20.6167 17.8095 20.7735 18.306C20.9303 18.8024 21.0086 19.325 21.0086 19.8738C21.0086 20.8928 20.7735 21.6245 20.3031 22.0687C19.8589 22.5129 19.271 22.735 18.5393 22.735H14.1887V40.8432C13.9012 40.9216 13.444 41 12.8168 41.0784C12.2158 41.1568 11.6149 41.196 11.0139 41.196C10.4129 41.196 9.8772 41.1437 9.40685 41.0392C8.96264 40.9608 8.58375 40.804 8.27019 40.5689C7.95663 40.3337 7.72146 40.0071 7.56468 39.589C7.4079 39.1709 7.32951 38.6222 7.32951 37.9428V22.735H1.45022Z" fill="white"/>
<path d="M35.834 42.2867C35.9215 41.8631 35.9819 41.4344 36.0147 41.0032C36.0344 40.7444 36.0445 40.4805 36.0445 40.2172C36.0445 34.6028 31.4777 30.0371 25.8644 30.0371C25.1697 30.0374 24.4769 30.1087 23.7966 30.2499C23.9317 33.399 25.2432 36.3828 27.4721 38.6116C29.7009 40.8403 32.6848 42.1518 35.834 42.2867Z" fill="white"/>
<path d="M37.9803 28.1031C36.8081 26.9368 35.8789 25.5495 35.2464 24.0216C34.6139 22.4938 34.2907 20.8556 34.2956 19.202C34.2955 18.5551 34.3446 17.909 34.4426 17.2695C31.8029 17.6805 29.362 18.92 27.4727 20.8089C25.5834 22.6978 24.3434 25.1383 23.9319 27.7781C24.5714 27.6808 25.2175 27.6324 25.8644 27.6332C27.5181 27.6287 29.1564 27.9522 30.6843 28.5851C32.2121 29.2179 33.5993 30.1476 34.7655 31.3202C35.9374 32.4863 36.8665 33.8732 37.499 35.4006C38.1315 36.9281 38.4548 38.5658 38.4502 40.2191C38.4502 40.5413 38.4379 40.867 38.4137 41.1864C38.3896 41.5059 38.3514 41.8326 38.3014 42.1521C40.9416 41.7413 43.3828 40.5019 45.2724 38.6129C47.1621 36.7239 48.4023 34.283 48.8139 31.643C48.1743 31.7403 47.5283 31.7887 46.8814 31.7879C45.2278 31.7927 43.5897 31.4695 42.0618 30.8371C40.5339 30.2046 39.1466 29.2753 37.9803 28.1031Z" fill="white"/>
<path d="M46.8815 29.3821C47.5761 29.3824 48.269 29.3116 48.9493 29.171C48.8143 26.022 47.5028 23.0383 45.274 20.8095C43.0453 18.5808 40.0615 17.2693 36.9125 17.1343C36.7719 17.8146 36.7012 18.5074 36.7014 19.2021C36.7014 24.8154 41.2682 29.3821 46.8815 29.3821Z" fill="white"/>
<path d="M62.1909 28.2616C63.2883 28.2616 64.1245 28.0133 64.6993 27.5168C65.3003 26.9942 65.6008 26.2103 65.6008 25.1651C65.6008 24.1722 65.2873 23.4144 64.6602 22.8918C64.0592 22.3431 63.1707 22.0687 61.9949 22.0687C61.5768 22.0687 61.224 22.0818 60.9366 22.1079C60.6753 22.1079 60.4009 22.134 60.1135 22.1863V28.2616H62.1909ZM60.1527 40.8432C59.8653 40.9216 59.408 41 58.7809 41.0784C58.1799 41.1568 57.5789 41.196 56.9779 41.196C56.3769 41.196 55.8412 41.1437 55.3709 41.0392C54.9267 40.9608 54.5478 40.804 54.2342 40.5689C53.9207 40.3337 53.6855 40.0071 53.5287 39.589C53.3719 39.1709 53.2935 38.6222 53.2935 37.9428V19.4818C53.2935 18.9331 53.4373 18.515 53.7247 18.2276C54.0382 17.914 54.4563 17.6658 54.9789 17.4829C55.8674 17.1693 56.8734 16.9472 57.997 16.8165C59.1467 16.6598 60.2964 16.5814 61.4461 16.5814C65.0521 16.5814 67.8088 17.3522 69.7163 18.8939C71.6238 20.4356 72.5776 22.526 72.5776 25.1651C72.5776 26.4455 72.3685 27.6083 71.9505 28.6535C71.5585 29.6726 70.9575 30.561 70.1475 31.3188C69.3636 32.0504 68.3576 32.6253 67.1295 33.0434C65.9275 33.4353 64.5295 33.6313 62.9356 33.6313H60.1527V40.8432ZM87.4424 23.5189L83.5229 24.734C83.1309 24.4727 82.739 24.1069 82.347 23.6365C81.955 23.1662 81.7591 22.5129 81.7591 21.6768C81.7591 20.1089 82.7128 19.0115 84.6203 18.3844L89.0102 16.8949H90.4604C91.584 16.8949 92.4724 17.2216 93.1257 17.8748C93.7789 18.5281 94.1056 19.4165 94.1056 20.5401V40.9608C93.8181 41.0131 93.387 41.0784 92.8121 41.1568C92.2634 41.2613 91.7016 41.3136 91.1267 41.3136C90.5519 41.3136 90.0293 41.2744 89.5589 41.196C89.1147 41.1176 88.7358 40.9608 88.4223 40.7256C88.1087 40.4905 87.8605 40.1769 87.6776 39.7849C87.5208 39.3669 87.4424 38.8312 87.4424 38.1779V23.5189ZM112.432 29.0847C112.432 26.7852 112.093 25.0083 111.413 23.7541C110.76 22.4999 109.819 21.8727 108.591 21.8727C107.363 21.8727 106.422 22.4999 105.769 23.7541C105.142 25.0083 104.829 26.7852 104.829 29.0847C104.829 31.3841 105.142 33.174 105.769 34.4544C106.422 35.7086 107.363 36.3358 108.591 36.3358C109.819 36.3358 110.76 35.7086 111.413 34.4544C112.093 33.174 112.432 31.3841 112.432 29.0847ZM119.135 29.0847C119.135 31.0967 118.873 32.8866 118.351 34.4544C117.828 36.0222 117.097 37.3418 116.156 38.4131C115.241 39.4583 114.131 40.2553 112.824 40.804C111.544 41.3528 110.146 41.6271 108.63 41.6271C107.089 41.6271 105.665 41.3528 104.358 40.804C103.078 40.2553 101.967 39.4583 101.027 38.4131C100.112 37.3418 99.3935 36.0222 98.8708 34.4544C98.3744 32.8866 98.1261 31.0967 98.1261 29.0847C98.1261 27.0726 98.3744 25.2958 98.8708 23.7541C99.3935 22.1863 100.112 20.8798 101.027 19.8346C101.967 18.7632 103.078 17.9532 104.358 17.4045C105.665 16.8557 107.089 16.5814 108.63 16.5814C110.146 16.5814 111.544 16.8557 112.824 17.4045C114.131 17.9532 115.241 18.7632 116.156 19.8346C117.097 20.8798 117.828 22.1863 118.351 23.7541C118.873 25.2958 119.135 27.0726 119.135 29.0847Z" fill="white"/>
<path d="M1.04 49.792C1.04 49.3333 1.17333 48.9707 1.44 48.704C1.70667 48.4373 2.06933 48.304 2.528 48.304H7.808C7.88267 48.4213 7.94667 48.576 8 48.768C8.064 48.96 8.096 49.1627 8.096 49.376C8.096 49.7813 8.00533 50.0693 7.824 50.24C7.65333 50.4107 7.424 50.496 7.136 50.496H3.76V51.984H7.36C7.43467 52.1013 7.49867 52.256 7.552 52.448C7.616 52.6293 7.648 52.8267 7.648 53.04C7.648 53.4453 7.56267 53.7333 7.392 53.904C7.22133 54.0747 6.992 54.16 6.704 54.16H3.76V55.84H7.872C7.94667 55.9573 8.01067 56.112 8.064 56.304C8.128 56.496 8.16 56.6987 8.16 56.912C8.16 57.3173 8.06933 57.6107 7.888 57.792C7.71733 57.9627 7.488 58.048 7.2 58.048H2.528C2.06933 58.048 1.70667 57.9147 1.44 57.648C1.17333 57.3813 1.04 57.0187 1.04 56.56V49.792ZM14.4851 57.792C14.3358 57.9093 14.1171 58.0053 13.8291 58.08C13.5411 58.1547 13.2158 58.192 12.8531 58.192C12.4371 58.192 12.0745 58.1387 11.7651 58.032C11.4665 57.9253 11.2585 57.7547 11.1411 57.52C11.0451 57.3387 10.9278 57.088 10.7891 56.768C10.6611 56.4373 10.5225 56.0747 10.3731 55.68C10.2238 55.2747 10.0691 54.8427 9.90913 54.384C9.74913 53.9253 9.59446 53.472 9.44513 53.024C9.30646 52.576 9.17846 52.144 9.06113 51.728C8.94379 51.312 8.84779 50.944 8.77313 50.624C8.92246 50.4747 9.11979 50.3467 9.36513 50.24C9.62113 50.1227 9.89846 50.064 10.1971 50.064C10.5705 50.064 10.8745 50.144 11.1091 50.304C11.3545 50.4533 11.5358 50.7413 11.6531 51.168L12.2771 53.616C12.3945 54.096 12.5065 54.5333 12.6131 54.928C12.7198 55.312 12.7998 55.6107 12.8531 55.824H12.9331C13.1358 55.0347 13.3491 54.16 13.5731 53.2C13.7971 52.24 13.9998 51.296 14.1811 50.368C14.3625 50.272 14.5651 50.1973 14.7891 50.144C15.0238 50.0907 15.2478 50.064 15.4611 50.064C15.8345 50.064 16.1491 50.144 16.4051 50.304C16.6611 50.464 16.7891 50.7413 16.7891 51.136C16.7891 51.3067 16.7465 51.5573 16.6611 51.888C16.5865 52.208 16.4851 52.576 16.3571 52.992C16.2398 53.3973 16.0958 53.8293 15.9251 54.288C15.7651 54.7467 15.5998 55.1947 15.4291 55.632C15.2585 56.0693 15.0878 56.48 14.9171 56.864C14.7571 57.2373 14.6131 57.5467 14.4851 57.792ZM22.0378 58.256C21.4084 58.256 20.8218 58.1707 20.2778 58C19.7444 57.8187 19.2751 57.552 18.8698 57.2C18.4751 56.848 18.1604 56.4053 17.9258 55.872C17.7018 55.3387 17.5898 54.7147 17.5898 54C17.5898 53.296 17.7018 52.6933 17.9258 52.192C18.1604 51.68 18.4644 51.264 18.8378 50.944C19.2111 50.6133 19.6378 50.3733 20.1178 50.224C20.5978 50.064 21.0884 49.984 21.5898 49.984C22.1551 49.984 22.6671 50.0693 23.1258 50.24C23.5951 50.4107 23.9951 50.6453 24.3258 50.944C24.6671 51.2427 24.9284 51.6 25.1098 52.016C25.3018 52.432 25.3978 52.8853 25.3978 53.376C25.3978 53.7387 25.2964 54.016 25.0938 54.208C24.8911 54.4 24.6084 54.5227 24.2458 54.576L20.2938 55.168C20.4111 55.52 20.6511 55.7867 21.0138 55.968C21.3764 56.1387 21.7924 56.224 22.2618 56.224C22.6991 56.224 23.1098 56.1707 23.4938 56.064C23.8884 55.9467 24.2084 55.8133 24.4538 55.664C24.6244 55.7707 24.7684 55.92 24.8858 56.112C25.0031 56.304 25.0618 56.5067 25.0618 56.72C25.0618 57.2 24.8378 57.5573 24.3898 57.792C24.0484 57.9733 23.6644 58.096 23.2378 58.16C22.8111 58.224 22.4111 58.256 22.0378 58.256ZM21.5898 51.968C21.3338 51.968 21.1098 52.0107 20.9178 52.096C20.7364 52.1813 20.5871 52.2933 20.4698 52.432C20.3524 52.56 20.2618 52.7093 20.1978 52.88C20.1444 53.04 20.1124 53.2053 20.1018 53.376L22.8378 52.928C22.8058 52.7147 22.6884 52.5013 22.4858 52.288C22.2831 52.0747 21.9844 51.968 21.5898 51.968ZM31.635 53.072C31.635 52.7413 31.539 52.5013 31.347 52.352C31.1657 52.192 30.915 52.112 30.595 52.112C30.3817 52.112 30.1683 52.1387 29.955 52.192C29.7523 52.2453 29.5763 52.3253 29.427 52.432V57.984C29.3203 58.016 29.1497 58.048 28.915 58.08C28.691 58.112 28.4563 58.128 28.211 58.128C27.9763 58.128 27.763 58.112 27.571 58.08C27.3897 58.048 27.235 57.984 27.107 57.888C26.979 57.792 26.8777 57.664 26.803 57.504C26.739 57.3333 26.707 57.1147 26.707 56.848V52.048C26.707 51.76 26.7657 51.5253 26.883 51.344C27.011 51.1627 27.1817 50.9973 27.395 50.848C27.7577 50.592 28.211 50.384 28.755 50.224C29.3097 50.064 29.923 49.984 30.595 49.984C31.8003 49.984 32.7283 50.2507 33.379 50.784C34.0297 51.3067 34.355 52.0373 34.355 52.976V57.984C34.2483 58.016 34.0777 58.048 33.843 58.08C33.619 58.112 33.3843 58.128 33.139 58.128C32.9043 58.128 32.691 58.112 32.499 58.08C32.3177 58.048 32.163 57.984 32.035 57.888C31.907 57.792 31.8057 57.664 31.731 57.504C31.667 57.3333 31.635 57.1147 31.635 56.848V53.072ZM38.7551 55.328C38.7551 55.6053 38.8405 55.8027 39.0111 55.92C39.1925 56.0373 39.4431 56.096 39.7631 56.096C39.9231 56.096 40.0885 56.0853 40.2591 56.064C40.4298 56.032 40.5791 55.9947 40.7071 55.952C40.8031 56.0693 40.8831 56.2027 40.9471 56.352C41.0218 56.4907 41.0591 56.6613 41.0591 56.864C41.0591 57.2693 40.9045 57.6 40.5951 57.856C40.2965 58.112 39.7631 58.24 38.9951 58.24C38.0565 58.24 37.3311 58.0267 36.8191 57.6C36.3178 57.1733 36.0671 56.48 36.0671 55.52V48.672C36.1845 48.64 36.3498 48.608 36.5631 48.576C36.7871 48.5333 37.0218 48.512 37.2671 48.512C37.7365 48.512 38.0991 48.5973 38.3551 48.768C38.6218 48.928 38.7551 49.2747 38.7551 49.808V50.832H40.8511C40.9151 50.9493 40.9738 51.0987 41.0271 51.28C41.0911 51.4507 41.1231 51.6427 41.1231 51.856C41.1231 52.2293 41.0378 52.5013 40.8671 52.672C40.7071 52.832 40.4885 52.912 40.2111 52.912H38.7551V55.328ZM50.3956 54.112C50.3956 54.7733 50.2943 55.3653 50.0916 55.888C49.889 56.4 49.601 56.832 49.2276 57.184C48.865 57.536 48.4276 57.8027 47.9156 57.984C47.4036 58.1653 46.833 58.256 46.2036 58.256C45.5743 58.256 45.0036 58.16 44.4916 57.968C43.9796 57.776 43.537 57.504 43.1636 57.152C42.801 56.7893 42.5183 56.352 42.3156 55.84C42.113 55.328 42.0116 54.752 42.0116 54.112C42.0116 53.4827 42.113 52.912 42.3156 52.4C42.5183 51.888 42.801 51.456 43.1636 51.104C43.537 50.7413 43.9796 50.464 44.4916 50.272C45.0036 50.08 45.5743 49.984 46.2036 49.984C46.833 49.984 47.4036 50.0853 47.9156 50.288C48.4276 50.48 48.865 50.7573 49.2276 51.12C49.601 51.472 49.889 51.904 50.0916 52.416C50.2943 52.928 50.3956 53.4933 50.3956 54.112ZM44.7956 54.112C44.7956 54.7627 44.9183 55.264 45.1636 55.616C45.4196 55.9573 45.7716 56.128 46.2196 56.128C46.6676 56.128 47.009 55.952 47.2436 55.6C47.489 55.248 47.6116 54.752 47.6116 54.112C47.6116 53.472 47.489 52.9813 47.2436 52.64C46.9983 52.288 46.6516 52.112 46.2036 52.112C45.7556 52.112 45.409 52.288 45.1636 52.64C44.9183 52.9813 44.7956 53.472 44.7956 54.112ZM58.2826 55.68C58.2826 56.4907 57.9786 57.1253 57.3706 57.584C56.7626 58.0427 55.8666 58.272 54.6826 58.272C54.2346 58.272 53.8186 58.24 53.4346 58.176C53.0506 58.112 52.72 58.016 52.4426 57.888C52.176 57.7493 51.9626 57.5787 51.8026 57.376C51.6533 57.1733 51.5786 56.9333 51.5786 56.656C51.5786 56.4 51.632 56.1867 51.7386 56.016C51.8453 55.8347 51.9733 55.6853 52.1226 55.568C52.432 55.7387 52.784 55.8933 53.1786 56.032C53.584 56.16 54.048 56.224 54.5706 56.224C54.9013 56.224 55.152 56.176 55.3226 56.08C55.504 55.984 55.5946 55.856 55.5946 55.696C55.5946 55.5467 55.5306 55.4293 55.4026 55.344C55.2746 55.2587 55.0613 55.1893 54.7626 55.136L54.2826 55.04C53.3546 54.8587 52.6613 54.576 52.2026 54.192C51.7546 53.7973 51.5306 53.2373 51.5306 52.512C51.5306 52.1173 51.616 51.76 51.7866 51.44C51.9573 51.12 52.1973 50.8533 52.5066 50.64C52.816 50.4267 53.184 50.2613 53.6106 50.144C54.048 50.0267 54.528 49.968 55.0506 49.968C55.4453 49.968 55.8133 50 56.1546 50.064C56.5066 50.1173 56.8106 50.2027 57.0666 50.32C57.3226 50.4373 57.5253 50.592 57.6746 50.784C57.824 50.9653 57.8986 51.184 57.8986 51.44C57.8986 51.6853 57.8506 51.8987 57.7546 52.08C57.6693 52.2507 57.5573 52.3947 57.4186 52.512C57.3333 52.4587 57.2053 52.4053 57.0346 52.352C56.864 52.288 56.6773 52.2347 56.4746 52.192C56.272 52.1387 56.064 52.096 55.8506 52.064C55.648 52.032 55.4613 52.016 55.2906 52.016C54.9386 52.016 54.6666 52.0587 54.4746 52.144C54.2826 52.2187 54.1866 52.3413 54.1866 52.512C54.1866 52.6293 54.24 52.7253 54.3466 52.8C54.4533 52.8747 54.656 52.944 54.9546 53.008L55.4506 53.12C56.4746 53.3547 57.2 53.68 57.6266 54.096C58.064 54.5013 58.2826 55.0293 58.2826 55.68ZM63.0088 49.792C63.0088 49.3333 63.1421 48.9707 63.4088 48.704C63.6754 48.4373 64.0381 48.304 64.4968 48.304H69.7768C69.8514 48.4213 69.9154 48.576 69.9688 48.768C70.0328 48.96 70.0648 49.1627 70.0648 49.376C70.0648 49.7813 69.9741 50.0693 69.7928 50.24C69.6221 50.4107 69.3928 50.496 69.1048 50.496H65.7288V51.984H69.3288C69.4034 52.1013 69.4674 52.256 69.5208 52.448C69.5848 52.6293 69.6168 52.8267 69.6168 53.04C69.6168 53.4453 69.5314 53.7333 69.3608 53.904C69.1901 54.0747 68.9608 54.16 68.6728 54.16H65.7288V55.84H69.8408C69.9154 55.9573 69.9794 56.112 70.0328 56.304C70.0968 56.496 70.1288 56.6987 70.1288 56.912C70.1288 57.3173 70.0381 57.6107 69.8568 57.792C69.6861 57.9627 69.4568 58.048 69.1688 58.048H64.4968C64.0381 58.048 63.6754 57.9147 63.4088 57.648C63.1421 57.3813 63.0088 57.0187 63.0088 56.56V49.792ZM78.1264 55.68C78.1264 56.4907 77.8224 57.1253 77.2144 57.584C76.6064 58.0427 75.7104 58.272 74.5264 58.272C74.0784 58.272 73.6624 58.24 73.2784 58.176C72.8944 58.112 72.5637 58.016 72.2864 57.888C72.0197 57.7493 71.8064 57.5787 71.6464 57.376C71.497 57.1733 71.4224 56.9333 71.4224 56.656C71.4224 56.4 71.4757 56.1867 71.5824 56.016C71.689 55.8347 71.817 55.6853 71.9664 55.568C72.2757 55.7387 72.6277 55.8933 73.0224 56.032C73.4277 56.16 73.8917 56.224 74.4144 56.224C74.745 56.224 74.9957 56.176 75.1664 56.08C75.3477 55.984 75.4384 55.856 75.4384 55.696C75.4384 55.5467 75.3744 55.4293 75.2464 55.344C75.1184 55.2587 74.905 55.1893 74.6064 55.136L74.1264 55.04C73.1984 54.8587 72.505 54.576 72.0464 54.192C71.5984 53.7973 71.3744 53.2373 71.3744 52.512C71.3744 52.1173 71.4597 51.76 71.6304 51.44C71.801 51.12 72.041 50.8533 72.3504 50.64C72.6597 50.4267 73.0277 50.2613 73.4544 50.144C73.8917 50.0267 74.3717 49.968 74.8944 49.968C75.289 49.968 75.657 50 75.9984 50.064C76.3504 50.1173 76.6544 50.2027 76.9104 50.32C77.1664 50.4373 77.369 50.592 77.5184 50.784C77.6677 50.9653 77.7424 51.184 77.7424 51.44C77.7424 51.6853 77.6944 51.8987 77.5984 52.08C77.513 52.2507 77.401 52.3947 77.2624 52.512C77.177 52.4587 77.049 52.4053 76.8784 52.352C76.7077 52.288 76.521 52.2347 76.3184 52.192C76.1157 52.1387 75.9077 52.096 75.6944 52.064C75.4917 52.032 75.305 52.016 75.1344 52.016C74.7824 52.016 74.5104 52.0587 74.3184 52.144C74.1264 52.2187 74.0304 52.3413 74.0304 52.512C74.0304 52.6293 74.0837 52.7253 74.1904 52.8C74.297 52.8747 74.4997 52.944 74.7984 53.008L75.2944 53.12C76.3184 53.3547 77.0437 53.68 77.4704 54.096C77.9077 54.5013 78.1264 55.0293 78.1264 55.68ZM83.0094 49.984C83.6494 49.984 84.2414 50.0693 84.7854 50.24C85.34 50.4 85.8147 50.6507 86.2094 50.992C86.604 51.3333 86.9134 51.7653 87.1374 52.288C87.3614 52.8 87.4734 53.4133 87.4734 54.128C87.4734 54.8107 87.3774 55.408 87.1854 55.92C86.9934 56.432 86.7214 56.864 86.3694 57.216C86.0174 57.5573 85.5907 57.8133 85.0894 57.984C84.5987 58.1547 84.0494 58.24 83.4414 58.24C82.9827 58.24 82.556 58.1707 82.1614 58.032V60.688C82.0547 60.72 81.884 60.752 81.6494 60.784C81.4147 60.8267 81.1747 60.848 80.9294 60.848C80.6947 60.848 80.4814 60.832 80.2894 60.8C80.108 60.768 79.9534 60.704 79.8254 60.608C79.6974 60.512 79.6014 60.3787 79.5374 60.208C79.4734 60.048 79.4414 59.8347 79.4414 59.568V51.888C79.4414 51.6 79.5 51.3653 79.6174 51.184C79.7454 51.0027 79.916 50.8373 80.1294 50.688C80.46 50.4747 80.8707 50.304 81.3614 50.176C81.852 50.048 82.4014 49.984 83.0094 49.984ZM83.0414 56.096C84.14 56.096 84.6894 55.44 84.6894 54.128C84.6894 53.4453 84.5507 52.9387 84.2734 52.608C84.0067 52.2773 83.6174 52.112 83.1054 52.112C82.9027 52.112 82.7214 52.1387 82.5614 52.192C82.4014 52.2347 82.2627 52.288 82.1454 52.352V55.872C82.2734 55.936 82.412 55.9893 82.5614 56.032C82.7107 56.0747 82.8707 56.096 83.0414 56.096ZM96.8488 54.112C96.8488 54.7733 96.7474 55.3653 96.5448 55.888C96.3421 56.4 96.0541 56.832 95.6808 57.184C95.3181 57.536 94.8808 57.8027 94.3688 57.984C93.8568 58.1653 93.2861 58.256 92.6568 58.256C92.0274 58.256 91.4568 58.16 90.9448 57.968C90.4328 57.776 89.9901 57.504 89.6168 57.152C89.2541 56.7893 88.9714 56.352 88.7688 55.84C88.5661 55.328 88.4648 54.752 88.4648 54.112C88.4648 53.4827 88.5661 52.912 88.7688 52.4C88.9714 51.888 89.2541 51.456 89.6168 51.104C89.9901 50.7413 90.4328 50.464 90.9448 50.272C91.4568 50.08 92.0274 49.984 92.6568 49.984C93.2861 49.984 93.8568 50.0853 94.3688 50.288C94.8808 50.48 95.3181 50.7573 95.6808 51.12C96.0541 51.472 96.3421 51.904 96.5448 52.416C96.7474 52.928 96.8488 53.4933 96.8488 54.112ZM91.2488 54.112C91.2488 54.7627 91.3714 55.264 91.6168 55.616C91.8728 55.9573 92.2248 56.128 92.6727 56.128C93.1208 56.128 93.4621 55.952 93.6968 55.6C93.9421 55.248 94.0648 54.752 94.0648 54.112C94.0648 53.472 93.9421 52.9813 93.6968 52.64C93.4514 52.288 93.1048 52.112 92.6568 52.112C92.2088 52.112 91.8621 52.288 91.6168 52.64C91.3714 52.9813 91.2488 53.472 91.2488 54.112ZM100.896 57.984C100.789 58.016 100.618 58.048 100.384 58.08C100.16 58.112 99.9251 58.128 99.6798 58.128C99.4451 58.128 99.2318 58.112 99.0398 58.08C98.8584 58.048 98.7038 57.984 98.5758 57.888C98.4478 57.792 98.3464 57.664 98.2718 57.504C98.2078 57.3333 98.1758 57.1147 98.1758 56.848V52.048C98.1758 51.8027 98.2184 51.5947 98.3038 51.424C98.3998 51.2427 98.5331 51.0827 98.7038 50.944C98.8744 50.8053 99.0824 50.6827 99.3278 50.576C99.5838 50.4587 99.8558 50.3573 100.144 50.272C100.432 50.1867 100.73 50.1227 101.04 50.08C101.349 50.0267 101.658 50 101.968 50C102.48 50 102.885 50.1013 103.184 50.304C103.482 50.496 103.632 50.816 103.632 51.264C103.632 51.4133 103.61 51.5627 103.568 51.712C103.525 51.8507 103.472 51.9787 103.408 52.096C103.184 52.096 102.954 52.1067 102.72 52.128C102.485 52.1493 102.256 52.1813 102.032 52.224C101.808 52.2667 101.594 52.3147 101.392 52.368C101.2 52.4107 101.034 52.464 100.896 52.528V57.984ZM107.474 55.328C107.474 55.6053 107.559 55.8027 107.73 55.92C107.911 56.0373 108.162 56.096 108.482 56.096C108.642 56.096 108.807 56.0853 108.978 56.064C109.149 56.032 109.298 55.9947 109.426 55.952C109.522 56.0693 109.602 56.2027 109.666 56.352C109.741 56.4907 109.778 56.6613 109.778 56.864C109.778 57.2693 109.623 57.6 109.314 57.856C109.015 58.112 108.482 58.24 107.714 58.24C106.775 58.24 106.05 58.0267 105.538 57.6C105.037 57.1733 104.786 56.48 104.786 55.52V48.672C104.903 48.64 105.069 48.608 105.282 48.576C105.506 48.5333 105.741 48.512 105.986 48.512C106.455 48.512 106.818 48.5973 107.074 48.768C107.341 48.928 107.474 49.2747 107.474 49.808V50.832H109.57C109.634 50.9493 109.693 51.0987 109.746 51.28C109.81 51.4507 109.842 51.6427 109.842 51.856C109.842 52.2293 109.757 52.5013 109.586 52.672C109.426 52.832 109.207 52.912 108.93 52.912H107.474V55.328ZM111.096 48.064C111.096 47.6587 111.229 47.3173 111.496 47.04C111.773 46.7627 112.136 46.624 112.584 46.624C113.032 46.624 113.389 46.7627 113.656 47.04C113.933 47.3173 114.072 47.6587 114.072 48.064C114.072 48.4693 113.933 48.8107 113.656 49.088C113.389 49.3653 113.032 49.504 112.584 49.504C112.136 49.504 111.773 49.3653 111.496 49.088C111.229 48.8107 111.096 48.4693 111.096 48.064ZM113.944 57.984C113.827 58.0053 113.651 58.032 113.416 58.064C113.192 58.1067 112.963 58.128 112.728 58.128C112.493 58.128 112.28 58.112 112.088 58.08C111.907 58.048 111.752 57.984 111.624 57.888C111.496 57.792 111.395 57.664 111.32 57.504C111.256 57.3333 111.224 57.1147 111.224 56.848V50.336C111.341 50.3147 111.512 50.288 111.736 50.256C111.971 50.2133 112.205 50.192 112.44 50.192C112.675 50.192 112.883 50.208 113.064 50.24C113.256 50.272 113.416 50.336 113.544 50.432C113.672 50.528 113.768 50.6613 113.832 50.832C113.907 50.992 113.944 51.2053 113.944 51.472V57.984ZM120.876 57.792C120.726 57.9093 120.508 58.0053 120.22 58.08C119.932 58.1547 119.606 58.192 119.244 58.192C118.828 58.192 118.465 58.1387 118.156 58.032C117.857 57.9253 117.649 57.7547 117.532 57.52C117.436 57.3387 117.318 57.088 117.18 56.768C117.052 56.4373 116.913 56.0747 116.764 55.68C116.614 55.2747 116.46 54.8427 116.3 54.384C116.14 53.9253 115.985 53.472 115.836 53.024C115.697 52.576 115.569 52.144 115.452 51.728C115.334 51.312 115.238 50.944 115.164 50.624C115.313 50.4747 115.51 50.3467 115.756 50.24C116.012 50.1227 116.289 50.064 116.588 50.064C116.961 50.064 117.265 50.144 117.5 50.304C117.745 50.4533 117.926 50.7413 118.044 51.168L118.668 53.616C118.785 54.096 118.897 54.5333 119.004 54.928C119.11 55.312 119.19 55.6107 119.244 55.824H119.324C119.526 55.0347 119.74 54.16 119.964 53.2C120.188 52.24 120.39 51.296 120.572 50.368C120.753 50.272 120.956 50.1973 121.18 50.144C121.414 50.0907 121.638 50.064 121.852 50.064C122.225 50.064 122.54 50.144 122.796 50.304C123.052 50.464 123.18 50.7413 123.18 51.136C123.18 51.3067 123.137 51.5573 123.052 51.888C122.977 52.208 122.876 52.576 122.748 52.992C122.63 53.3973 122.486 53.8293 122.316 54.288C122.156 54.7467 121.99 55.1947 121.82 55.632C121.649 56.0693 121.478 56.48 121.308 56.864C121.148 57.2373 121.004 57.5467 120.876 57.792ZM132.364 54.112C132.364 54.7733 132.263 55.3653 132.06 55.888C131.858 56.4 131.57 56.832 131.196 57.184C130.834 57.536 130.396 57.8027 129.884 57.984C129.372 58.1653 128.802 58.256 128.172 58.256C127.543 58.256 126.972 58.16 126.46 57.968C125.948 57.776 125.506 57.504 125.132 57.152C124.77 56.7893 124.487 56.352 124.284 55.84C124.082 55.328 123.98 54.752 123.98 54.112C123.98 53.4827 124.082 52.912 124.284 52.4C124.487 51.888 124.77 51.456 125.132 51.104C125.506 50.7413 125.948 50.464 126.46 50.272C126.972 50.08 127.543 49.984 128.172 49.984C128.802 49.984 129.372 50.0853 129.884 50.288C130.396 50.48 130.834 50.7573 131.196 51.12C131.57 51.472 131.858 51.904 132.06 52.416C132.263 52.928 132.364 53.4933 132.364 54.112ZM126.764 54.112C126.764 54.7627 126.887 55.264 127.132 55.616C127.388 55.9573 127.74 56.128 128.188 56.128C128.636 56.128 128.978 55.952 129.212 55.6C129.458 55.248 129.58 54.752 129.58 54.112C129.58 53.472 129.458 52.9813 129.212 52.64C128.967 52.288 128.62 52.112 128.172 52.112C127.724 52.112 127.378 52.288 127.132 52.64C126.887 52.9813 126.764 53.472 126.764 54.112ZM140.251 55.68C140.251 56.4907 139.947 57.1253 139.339 57.584C138.731 58.0427 137.835 58.272 136.651 58.272C136.203 58.272 135.787 58.24 135.403 58.176C135.019 58.112 134.689 58.016 134.411 57.888C134.145 57.7493 133.931 57.5787 133.771 57.376C133.622 57.1733 133.547 56.9333 133.547 56.656C133.547 56.4 133.601 56.1867 133.707 56.016C133.814 55.8347 133.942 55.6853 134.091 55.568C134.401 55.7387 134.753 55.8933 135.147 56.032C135.553 56.16 136.017 56.224 136.539 56.224C136.87 56.224 137.121 56.176 137.291 56.08C137.473 55.984 137.563 55.856 137.563 55.696C137.563 55.5467 137.499 55.4293 137.371 55.344C137.243 55.2587 137.03 55.1893 136.731 55.136L136.251 55.04C135.323 54.8587 134.63 54.576 134.171 54.192C133.723 53.7973 133.499 53.2373 133.499 52.512C133.499 52.1173 133.585 51.76 133.755 51.44C133.926 51.12 134.166 50.8533 134.475 50.64C134.785 50.4267 135.153 50.2613 135.579 50.144C136.017 50.0267 136.497 49.968 137.019 49.968C137.414 49.968 137.782 50 138.123 50.064C138.475 50.1173 138.779 50.2027 139.035 50.32C139.291 50.4373 139.494 50.592 139.643 50.784C139.793 50.9653 139.867 51.184 139.867 51.44C139.867 51.6853 139.819 51.8987 139.723 52.08C139.638 52.2507 139.526 52.3947 139.387 52.512C139.302 52.4587 139.174 52.4053 139.003 52.352C138.833 52.288 138.646 52.2347 138.443 52.192C138.241 52.1387 138.033 52.096 137.819 52.064C137.617 52.032 137.43 52.016 137.259 52.016C136.907 52.016 136.635 52.0587 136.443 52.144C136.251 52.2187 136.155 52.3413 136.155 52.512C136.155 52.6293 136.209 52.7253 136.315 52.8C136.422 52.8747 136.625 52.944 136.923 53.008L137.419 53.12C138.443 53.3547 139.169 53.68 139.595 54.096C140.033 54.5013 140.251 55.0293 140.251 55.68Z" fill="white"/>
</svg>
