<svg width="141" height="72" viewBox="0 0 141 72" fill="none" xmlns="http://www.w3.org/2000/svg">
<path d="M1.45022 22.735C1.26731 22.4476 1.09747 22.0556 0.940685 21.5592C0.783905 21.0627 0.705514 20.5401 0.705514 19.9914C0.705514 18.9723 0.92762 18.2406 1.37183 17.7964C1.84218 17.3522 2.44317 17.1301 3.17481 17.1301H20.2639C20.4468 17.4175 20.6167 17.8095 20.7735 18.306C20.9303 18.8024 21.0086 19.325 21.0086 19.8738C21.0086 20.8928 20.7735 21.6245 20.3031 22.0687C19.8589 22.5129 19.271 22.735 18.5393 22.735H14.1887V40.8432C13.9012 40.9216 13.444 41 12.8168 41.0784C12.2158 41.1568 11.6149 41.196 11.0139 41.196C10.4129 41.196 9.8772 41.1437 9.40685 41.0392C8.96264 40.9608 8.58375 40.804 8.27019 40.5689C7.95663 40.3337 7.72146 40.0071 7.56468 39.589C7.4079 39.1709 7.32951 38.6222 7.32951 37.9428V22.735H1.45022Z" fill="white"/>
<path d="M35.834 42.2869C35.9215 41.8634 35.9819 41.4347 36.0147 41.0034C36.0344 40.7446 36.0445 40.4807 36.0445 40.2174C36.0445 34.603 31.4777 30.0374 25.8644 30.0374C25.1697 30.0377 24.4769 30.109 23.7966 30.2501C23.9317 33.3992 25.2432 36.3831 27.4721 38.6118C29.7009 40.8406 32.6848 42.152 35.834 42.2869Z" fill="white"/>
<path d="M37.9803 28.1031C36.8081 26.9368 35.8789 25.5495 35.2464 24.0216C34.6139 22.4938 34.2907 20.8556 34.2956 19.202C34.2955 18.5551 34.3446 17.909 34.4426 17.2695C31.8029 17.6805 29.362 18.92 27.4727 20.8089C25.5834 22.6978 24.3434 25.1383 23.9319 27.7781C24.5714 27.6808 25.2175 27.6324 25.8644 27.6332C27.5181 27.6287 29.1564 27.9522 30.6843 28.5851C32.2121 29.2179 33.5993 30.1476 34.7655 31.3202C35.9374 32.4863 36.8665 33.8732 37.499 35.4006C38.1315 36.9281 38.4548 38.5658 38.4502 40.2191C38.4502 40.5413 38.4379 40.867 38.4137 41.1864C38.3896 41.5059 38.3514 41.8326 38.3014 42.1521C40.9416 41.7413 43.3828 40.5019 45.2724 38.6129C47.1621 36.7239 48.4023 34.283 48.8139 31.643C48.1743 31.7403 47.5283 31.7887 46.8814 31.7879C45.2278 31.7927 43.5897 31.4695 42.0618 30.8371C40.5339 30.2046 39.1466 29.2753 37.9803 28.1031Z" fill="white"/>
<path d="M46.8815 29.382C47.5761 29.3822 48.269 29.3115 48.9493 29.1709C48.8143 26.0219 47.5028 23.0381 45.274 20.8094C43.0453 18.5807 40.0615 17.2692 36.9125 17.1342C36.7719 17.8144 36.7012 18.5073 36.7014 19.2019C36.7014 24.8152 41.2682 29.382 46.8815 29.382Z" fill="white"/>
<path d="M62.1909 28.2616C63.2883 28.2616 64.1245 28.0133 64.6993 27.5168C65.3003 26.9942 65.6008 26.2103 65.6008 25.1651C65.6008 24.1722 65.2873 23.4144 64.6602 22.8918C64.0592 22.3431 63.1707 22.0687 61.9949 22.0687C61.5768 22.0687 61.224 22.0818 60.9366 22.1079C60.6753 22.1079 60.4009 22.134 60.1135 22.1863V28.2616H62.1909ZM60.1527 40.8432C59.8653 40.9216 59.408 41 58.7809 41.0784C58.1799 41.1568 57.5789 41.196 56.9779 41.196C56.3769 41.196 55.8412 41.1437 55.3709 41.0392C54.9267 40.9608 54.5478 40.804 54.2342 40.5689C53.9207 40.3337 53.6855 40.0071 53.5287 39.589C53.3719 39.1709 53.2935 38.6222 53.2935 37.9428V19.4818C53.2935 18.9331 53.4373 18.515 53.7247 18.2276C54.0382 17.914 54.4563 17.6658 54.9789 17.4829C55.8674 17.1693 56.8734 16.9472 57.997 16.8165C59.1467 16.6598 60.2964 16.5814 61.4461 16.5814C65.0521 16.5814 67.8088 17.3522 69.7163 18.8939C71.6238 20.4356 72.5776 22.526 72.5776 25.1651C72.5776 26.4455 72.3685 27.6083 71.9505 28.6535C71.5585 29.6726 70.9575 30.561 70.1475 31.3188C69.3636 32.0504 68.3576 32.6253 67.1295 33.0434C65.9275 33.4353 64.5295 33.6313 62.9356 33.6313H60.1527V40.8432ZM87.4424 23.5189L83.5229 24.734C83.1309 24.4727 82.739 24.1069 82.347 23.6365C81.955 23.1662 81.7591 22.5129 81.7591 21.6768C81.7591 20.1089 82.7128 19.0115 84.6203 18.3844L89.0102 16.8949H90.4604C91.584 16.8949 92.4724 17.2216 93.1257 17.8748C93.7789 18.5281 94.1056 19.4165 94.1056 20.5401V40.9608C93.8181 41.0131 93.387 41.0784 92.8121 41.1568C92.2634 41.2613 91.7016 41.3136 91.1267 41.3136C90.5519 41.3136 90.0293 41.2744 89.5589 41.196C89.1147 41.1176 88.7358 40.9608 88.4223 40.7256C88.1087 40.4905 87.8605 40.1769 87.6776 39.7849C87.5208 39.3669 87.4424 38.8312 87.4424 38.1779V23.5189ZM112.432 29.0847C112.432 26.7852 112.093 25.0083 111.413 23.7541C110.76 22.4999 109.819 21.8727 108.591 21.8727C107.363 21.8727 106.422 22.4999 105.769 23.7541C105.142 25.0083 104.829 26.7852 104.829 29.0847C104.829 31.3841 105.142 33.174 105.769 34.4544C106.422 35.7086 107.363 36.3358 108.591 36.3358C109.819 36.3358 110.76 35.7086 111.413 34.4544C112.093 33.174 112.432 31.3841 112.432 29.0847ZM119.135 29.0847C119.135 31.0967 118.873 32.8866 118.351 34.4544C117.828 36.0222 117.097 37.3418 116.156 38.4131C115.241 39.4583 114.131 40.2553 112.824 40.804C111.544 41.3528 110.146 41.6271 108.63 41.6271C107.089 41.6271 105.665 41.3528 104.358 40.804C103.078 40.2553 101.967 39.4583 101.027 38.4131C100.112 37.3418 99.3935 36.0222 98.8708 34.4544C98.3744 32.8866 98.1261 31.0967 98.1261 29.0847C98.1261 27.0726 98.3744 25.2958 98.8708 23.7541C99.3935 22.1863 100.112 20.8798 101.027 19.8346C101.967 18.7632 103.078 17.9532 104.358 17.4045C105.665 16.8557 107.089 16.5814 108.63 16.5814C110.146 16.5814 111.544 16.8557 112.824 17.4045C114.131 17.9532 115.241 18.7632 116.156 19.8346C117.097 20.8798 117.828 22.1863 118.351 23.7541C118.873 25.2958 119.135 27.0726 119.135 29.0847Z" fill="white"/>
<path d="M1.04 47.792C1.04 47.3333 1.17333 46.9707 1.44 46.704C1.70667 46.4373 2.06933 46.304 2.528 46.304H7.808C7.88267 46.4213 7.94667 46.576 8 46.768C8.064 46.96 8.096 47.1627 8.096 47.376C8.096 47.7813 8.00533 48.0693 7.824 48.24C7.65333 48.4107 7.424 48.496 7.136 48.496H3.76V49.984H7.36C7.43467 50.1013 7.49867 50.256 7.552 50.448C7.616 50.6293 7.648 50.8267 7.648 51.04C7.648 51.4453 7.56267 51.7333 7.392 51.904C7.22133 52.0747 6.992 52.16 6.704 52.16H3.76V53.84H7.872C7.94667 53.9573 8.01067 54.112 8.064 54.304C8.128 54.496 8.16 54.6987 8.16 54.912C8.16 55.3173 8.06933 55.6107 7.888 55.792C7.71733 55.9627 7.488 56.048 7.2 56.048H2.528C2.06933 56.048 1.70667 55.9147 1.44 55.648C1.17333 55.3813 1.04 55.0187 1.04 54.56V47.792ZM14.4851 55.792C14.3358 55.9093 14.1171 56.0053 13.8291 56.08C13.5411 56.1547 13.2158 56.192 12.8531 56.192C12.4371 56.192 12.0745 56.1387 11.7651 56.032C11.4665 55.9253 11.2585 55.7547 11.1411 55.52C11.0451 55.3387 10.9278 55.088 10.7891 54.768C10.6611 54.4373 10.5225 54.0747 10.3731 53.68C10.2238 53.2747 10.0691 52.8427 9.90913 52.384C9.74913 51.9253 9.59446 51.472 9.44513 51.024C9.30646 50.576 9.17846 50.144 9.06113 49.728C8.94379 49.312 8.84779 48.944 8.77313 48.624C8.92246 48.4747 9.11979 48.3467 9.36513 48.24C9.62113 48.1227 9.89846 48.064 10.1971 48.064C10.5705 48.064 10.8745 48.144 11.1091 48.304C11.3545 48.4533 11.5358 48.7413 11.6531 49.168L12.2771 51.616C12.3945 52.096 12.5065 52.5333 12.6131 52.928C12.7198 53.312 12.7998 53.6107 12.8531 53.824H12.9331C13.1358 53.0347 13.3491 52.16 13.5731 51.2C13.7971 50.24 13.9998 49.296 14.1811 48.368C14.3625 48.272 14.5651 48.1973 14.7891 48.144C15.0238 48.0907 15.2478 48.064 15.4611 48.064C15.8345 48.064 16.1491 48.144 16.4051 48.304C16.6611 48.464 16.7891 48.7413 16.7891 49.136C16.7891 49.3067 16.7465 49.5573 16.6611 49.888C16.5865 50.208 16.4851 50.576 16.3571 50.992C16.2398 51.3973 16.0958 51.8293 15.9251 52.288C15.7651 52.7467 15.5998 53.1947 15.4291 53.632C15.2585 54.0693 15.0878 54.48 14.9171 54.864C14.7571 55.2373 14.6131 55.5467 14.4851 55.792ZM22.0378 56.256C21.4084 56.256 20.8218 56.1707 20.2778 56C19.7444 55.8187 19.2751 55.552 18.8698 55.2C18.4751 54.848 18.1604 54.4053 17.9258 53.872C17.7018 53.3387 17.5898 52.7147 17.5898 52C17.5898 51.296 17.7018 50.6933 17.9258 50.192C18.1604 49.68 18.4644 49.264 18.8378 48.944C19.2111 48.6133 19.6378 48.3733 20.1178 48.224C20.5978 48.064 21.0884 47.984 21.5898 47.984C22.1551 47.984 22.6671 48.0693 23.1258 48.24C23.5951 48.4107 23.9951 48.6453 24.3258 48.944C24.6671 49.2427 24.9284 49.6 25.1098 50.016C25.3018 50.432 25.3978 50.8853 25.3978 51.376C25.3978 51.7387 25.2964 52.016 25.0938 52.208C24.8911 52.4 24.6084 52.5227 24.2458 52.576L20.2938 53.168C20.4111 53.52 20.6511 53.7867 21.0138 53.968C21.3764 54.1387 21.7924 54.224 22.2618 54.224C22.6991 54.224 23.1098 54.1707 23.4938 54.064C23.8884 53.9467 24.2084 53.8133 24.4538 53.664C24.6244 53.7707 24.7684 53.92 24.8858 54.112C25.0031 54.304 25.0618 54.5067 25.0618 54.72C25.0618 55.2 24.8378 55.5573 24.3898 55.792C24.0484 55.9733 23.6644 56.096 23.2378 56.16C22.8111 56.224 22.4111 56.256 22.0378 56.256ZM21.5898 49.968C21.3338 49.968 21.1098 50.0107 20.9178 50.096C20.7364 50.1813 20.5871 50.2933 20.4698 50.432C20.3524 50.56 20.2618 50.7093 20.1978 50.88C20.1444 51.04 20.1124 51.2053 20.1018 51.376L22.8378 50.928C22.8058 50.7147 22.6884 50.5013 22.4858 50.288C22.2831 50.0747 21.9844 49.968 21.5898 49.968ZM31.635 51.072C31.635 50.7413 31.539 50.5013 31.347 50.352C31.1657 50.192 30.915 50.112 30.595 50.112C30.3817 50.112 30.1683 50.1387 29.955 50.192C29.7523 50.2453 29.5763 50.3253 29.427 50.432V55.984C29.3203 56.016 29.1497 56.048 28.915 56.08C28.691 56.112 28.4563 56.128 28.211 56.128C27.9763 56.128 27.763 56.112 27.571 56.08C27.3897 56.048 27.235 55.984 27.107 55.888C26.979 55.792 26.8777 55.664 26.803 55.504C26.739 55.3333 26.707 55.1147 26.707 54.848V50.048C26.707 49.76 26.7657 49.5253 26.883 49.344C27.011 49.1627 27.1817 48.9973 27.395 48.848C27.7577 48.592 28.211 48.384 28.755 48.224C29.3097 48.064 29.923 47.984 30.595 47.984C31.8003 47.984 32.7283 48.2507 33.379 48.784C34.0297 49.3067 34.355 50.0373 34.355 50.976V55.984C34.2483 56.016 34.0777 56.048 33.843 56.08C33.619 56.112 33.3843 56.128 33.139 56.128C32.9043 56.128 32.691 56.112 32.499 56.08C32.3177 56.048 32.163 55.984 32.035 55.888C31.907 55.792 31.8057 55.664 31.731 55.504C31.667 55.3333 31.635 55.1147 31.635 54.848V51.072ZM38.7551 53.328C38.7551 53.6053 38.8405 53.8027 39.0111 53.92C39.1925 54.0373 39.4431 54.096 39.7631 54.096C39.9231 54.096 40.0885 54.0853 40.2591 54.064C40.4298 54.032 40.5791 53.9947 40.7071 53.952C40.8031 54.0693 40.8831 54.2027 40.9471 54.352C41.0218 54.4907 41.0591 54.6613 41.0591 54.864C41.0591 55.2693 40.9045 55.6 40.5951 55.856C40.2965 56.112 39.7631 56.24 38.9951 56.24C38.0565 56.24 37.3311 56.0267 36.8191 55.6C36.3178 55.1733 36.0671 54.48 36.0671 53.52V46.672C36.1845 46.64 36.3498 46.608 36.5631 46.576C36.7871 46.5333 37.0218 46.512 37.2671 46.512C37.7365 46.512 38.0991 46.5973 38.3551 46.768C38.6218 46.928 38.7551 47.2747 38.7551 47.808V48.832H40.8511C40.9151 48.9493 40.9738 49.0987 41.0271 49.28C41.0911 49.4507 41.1231 49.6427 41.1231 49.856C41.1231 50.2293 41.0378 50.5013 40.8671 50.672C40.7071 50.832 40.4885 50.912 40.2111 50.912H38.7551V53.328ZM50.3956 52.112C50.3956 52.7733 50.2943 53.3653 50.0916 53.888C49.889 54.4 49.601 54.832 49.2276 55.184C48.865 55.536 48.4276 55.8027 47.9156 55.984C47.4036 56.1653 46.833 56.256 46.2036 56.256C45.5743 56.256 45.0036 56.16 44.4916 55.968C43.9796 55.776 43.537 55.504 43.1636 55.152C42.801 54.7893 42.5183 54.352 42.3156 53.84C42.113 53.328 42.0116 52.752 42.0116 52.112C42.0116 51.4827 42.113 50.912 42.3156 50.4C42.5183 49.888 42.801 49.456 43.1636 49.104C43.537 48.7413 43.9796 48.464 44.4916 48.272C45.0036 48.08 45.5743 47.984 46.2036 47.984C46.833 47.984 47.4036 48.0853 47.9156 48.288C48.4276 48.48 48.865 48.7573 49.2276 49.12C49.601 49.472 49.889 49.904 50.0916 50.416C50.2943 50.928 50.3956 51.4933 50.3956 52.112ZM44.7956 52.112C44.7956 52.7627 44.9183 53.264 45.1636 53.616C45.4196 53.9573 45.7716 54.128 46.2196 54.128C46.6676 54.128 47.009 53.952 47.2436 53.6C47.489 53.248 47.6116 52.752 47.6116 52.112C47.6116 51.472 47.489 50.9813 47.2436 50.64C46.9983 50.288 46.6516 50.112 46.2036 50.112C45.7556 50.112 45.409 50.288 45.1636 50.64C44.9183 50.9813 44.7956 51.472 44.7956 52.112ZM58.2826 53.68C58.2826 54.4907 57.9786 55.1253 57.3706 55.584C56.7626 56.0427 55.8666 56.272 54.6826 56.272C54.2346 56.272 53.8186 56.24 53.4346 56.176C53.0506 56.112 52.72 56.016 52.4426 55.888C52.176 55.7493 51.9626 55.5787 51.8026 55.376C51.6533 55.1733 51.5786 54.9333 51.5786 54.656C51.5786 54.4 51.632 54.1867 51.7386 54.016C51.8453 53.8347 51.9733 53.6853 52.1226 53.568C52.432 53.7387 52.784 53.8933 53.1786 54.032C53.584 54.16 54.048 54.224 54.5706 54.224C54.9013 54.224 55.152 54.176 55.3226 54.08C55.504 53.984 55.5946 53.856 55.5946 53.696C55.5946 53.5467 55.5306 53.4293 55.4026 53.344C55.2746 53.2587 55.0613 53.1893 54.7626 53.136L54.2826 53.04C53.3546 52.8587 52.6613 52.576 52.2026 52.192C51.7546 51.7973 51.5306 51.2373 51.5306 50.512C51.5306 50.1173 51.616 49.76 51.7866 49.44C51.9573 49.12 52.1973 48.8533 52.5066 48.64C52.816 48.4267 53.184 48.2613 53.6106 48.144C54.048 48.0267 54.528 47.968 55.0506 47.968C55.4453 47.968 55.8133 48 56.1546 48.064C56.5066 48.1173 56.8106 48.2027 57.0666 48.32C57.3226 48.4373 57.5253 48.592 57.6746 48.784C57.824 48.9653 57.8986 49.184 57.8986 49.44C57.8986 49.6853 57.8506 49.8987 57.7546 50.08C57.6693 50.2507 57.5573 50.3947 57.4186 50.512C57.3333 50.4587 57.2053 50.4053 57.0346 50.352C56.864 50.288 56.6773 50.2347 56.4746 50.192C56.272 50.1387 56.064 50.096 55.8506 50.064C55.648 50.032 55.4613 50.016 55.2906 50.016C54.9386 50.016 54.6666 50.0587 54.4746 50.144C54.2826 50.2187 54.1866 50.3413 54.1866 50.512C54.1866 50.6293 54.24 50.7253 54.3466 50.8C54.4533 50.8747 54.656 50.944 54.9546 51.008L55.4506 51.12C56.4746 51.3547 57.2 51.68 57.6266 52.096C58.064 52.5013 58.2826 53.0293 58.2826 53.68ZM63.0088 47.792C63.0088 47.3333 63.1421 46.9707 63.4088 46.704C63.6754 46.4373 64.0381 46.304 64.4968 46.304H69.7768C69.8514 46.4213 69.9154 46.576 69.9688 46.768C70.0328 46.96 70.0648 47.1627 70.0648 47.376C70.0648 47.7813 69.9741 48.0693 69.7928 48.24C69.6221 48.4107 69.3928 48.496 69.1048 48.496H65.7288V49.984H69.3288C69.4034 50.1013 69.4674 50.256 69.5208 50.448C69.5848 50.6293 69.6168 50.8267 69.6168 51.04C69.6168 51.4453 69.5314 51.7333 69.3608 51.904C69.1901 52.0747 68.9608 52.16 68.6728 52.16H65.7288V53.84H69.8408C69.9154 53.9573 69.9794 54.112 70.0328 54.304C70.0968 54.496 70.1288 54.6987 70.1288 54.912C70.1288 55.3173 70.0381 55.6107 69.8568 55.792C69.6861 55.9627 69.4568 56.048 69.1688 56.048H64.4968C64.0381 56.048 63.6754 55.9147 63.4088 55.648C63.1421 55.3813 63.0088 55.0187 63.0088 54.56V47.792ZM78.1264 53.68C78.1264 54.4907 77.8224 55.1253 77.2144 55.584C76.6064 56.0427 75.7104 56.272 74.5264 56.272C74.0784 56.272 73.6624 56.24 73.2784 56.176C72.8944 56.112 72.5637 56.016 72.2864 55.888C72.0197 55.7493 71.8064 55.5787 71.6464 55.376C71.497 55.1733 71.4224 54.9333 71.4224 54.656C71.4224 54.4 71.4757 54.1867 71.5824 54.016C71.689 53.8347 71.817 53.6853 71.9664 53.568C72.2757 53.7387 72.6277 53.8933 73.0224 54.032C73.4277 54.16 73.8917 54.224 74.4144 54.224C74.745 54.224 74.9957 54.176 75.1664 54.08C75.3477 53.984 75.4384 53.856 75.4384 53.696C75.4384 53.5467 75.3744 53.4293 75.2464 53.344C75.1184 53.2587 74.905 53.1893 74.6064 53.136L74.1264 53.04C73.1984 52.8587 72.505 52.576 72.0464 52.192C71.5984 51.7973 71.3744 51.2373 71.3744 50.512C71.3744 50.1173 71.4597 49.76 71.6304 49.44C71.801 49.12 72.041 48.8533 72.3504 48.64C72.6597 48.4267 73.0277 48.2613 73.4544 48.144C73.8917 48.0267 74.3717 47.968 74.8944 47.968C75.289 47.968 75.657 48 75.9984 48.064C76.3504 48.1173 76.6544 48.2027 76.9104 48.32C77.1664 48.4373 77.369 48.592 77.5184 48.784C77.6677 48.9653 77.7424 49.184 77.7424 49.44C77.7424 49.6853 77.6944 49.8987 77.5984 50.08C77.513 50.2507 77.401 50.3947 77.2624 50.512C77.177 50.4587 77.049 50.4053 76.8784 50.352C76.7077 50.288 76.521 50.2347 76.3184 50.192C76.1157 50.1387 75.9077 50.096 75.6944 50.064C75.4917 50.032 75.305 50.016 75.1344 50.016C74.7824 50.016 74.5104 50.0587 74.3184 50.144C74.1264 50.2187 74.0304 50.3413 74.0304 50.512C74.0304 50.6293 74.0837 50.7253 74.1904 50.8C74.297 50.8747 74.4997 50.944 74.7984 51.008L75.2944 51.12C76.3184 51.3547 77.0437 51.68 77.4704 52.096C77.9077 52.5013 78.1264 53.0293 78.1264 53.68ZM83.0094 47.984C83.6494 47.984 84.2414 48.0693 84.7854 48.24C85.34 48.4 85.8147 48.6507 86.2094 48.992C86.604 49.3333 86.9134 49.7653 87.1374 50.288C87.3614 50.8 87.4734 51.4133 87.4734 52.128C87.4734 52.8107 87.3774 53.408 87.1854 53.92C86.9934 54.432 86.7214 54.864 86.3694 55.216C86.0174 55.5573 85.5907 55.8133 85.0894 55.984C84.5987 56.1547 84.0494 56.24 83.4414 56.24C82.9827 56.24 82.556 56.1707 82.1614 56.032V58.688C82.0547 58.72 81.884 58.752 81.6494 58.784C81.4147 58.8267 81.1747 58.848 80.9294 58.848C80.6947 58.848 80.4814 58.832 80.2894 58.8C80.108 58.768 79.9534 58.704 79.8254 58.608C79.6974 58.512 79.6014 58.3787 79.5374 58.208C79.4734 58.048 79.4414 57.8347 79.4414 57.568V49.888C79.4414 49.6 79.5 49.3653 79.6174 49.184C79.7454 49.0027 79.916 48.8373 80.1294 48.688C80.46 48.4747 80.8707 48.304 81.3614 48.176C81.852 48.048 82.4014 47.984 83.0094 47.984ZM83.0414 54.096C84.14 54.096 84.6894 53.44 84.6894 52.128C84.6894 51.4453 84.5507 50.9387 84.2734 50.608C84.0067 50.2773 83.6174 50.112 83.1054 50.112C82.9027 50.112 82.7214 50.1387 82.5614 50.192C82.4014 50.2347 82.2627 50.288 82.1454 50.352V53.872C82.2734 53.936 82.412 53.9893 82.5614 54.032C82.7107 54.0747 82.8707 54.096 83.0414 54.096ZM96.8488 52.112C96.8488 52.7733 96.7474 53.3653 96.5448 53.888C96.3421 54.4 96.0541 54.832 95.6808 55.184C95.3181 55.536 94.8808 55.8027 94.3688 55.984C93.8568 56.1653 93.2861 56.256 92.6568 56.256C92.0274 56.256 91.4568 56.16 90.9448 55.968C90.4328 55.776 89.9901 55.504 89.6168 55.152C89.2541 54.7893 88.9714 54.352 88.7688 53.84C88.5661 53.328 88.4648 52.752 88.4648 52.112C88.4648 51.4827 88.5661 50.912 88.7688 50.4C88.9714 49.888 89.2541 49.456 89.6168 49.104C89.9901 48.7413 90.4328 48.464 90.9448 48.272C91.4568 48.08 92.0274 47.984 92.6568 47.984C93.2861 47.984 93.8568 48.0853 94.3688 48.288C94.8808 48.48 95.3181 48.7573 95.6808 49.12C96.0541 49.472 96.3421 49.904 96.5448 50.416C96.7474 50.928 96.8488 51.4933 96.8488 52.112ZM91.2488 52.112C91.2488 52.7627 91.3714 53.264 91.6168 53.616C91.8728 53.9573 92.2248 54.128 92.6727 54.128C93.1208 54.128 93.4621 53.952 93.6968 53.6C93.9421 53.248 94.0648 52.752 94.0648 52.112C94.0648 51.472 93.9421 50.9813 93.6968 50.64C93.4514 50.288 93.1048 50.112 92.6568 50.112C92.2088 50.112 91.8621 50.288 91.6168 50.64C91.3714 50.9813 91.2488 51.472 91.2488 52.112ZM100.896 55.984C100.789 56.016 100.618 56.048 100.384 56.08C100.16 56.112 99.9251 56.128 99.6798 56.128C99.4451 56.128 99.2318 56.112 99.0398 56.08C98.8584 56.048 98.7038 55.984 98.5758 55.888C98.4478 55.792 98.3464 55.664 98.2718 55.504C98.2078 55.3333 98.1758 55.1147 98.1758 54.848V50.048C98.1758 49.8027 98.2184 49.5947 98.3038 49.424C98.3998 49.2427 98.5331 49.0827 98.7038 48.944C98.8744 48.8053 99.0824 48.6827 99.3278 48.576C99.5838 48.4587 99.8558 48.3573 100.144 48.272C100.432 48.1867 100.73 48.1227 101.04 48.08C101.349 48.0267 101.658 48 101.968 48C102.48 48 102.885 48.1013 103.184 48.304C103.482 48.496 103.632 48.816 103.632 49.264C103.632 49.4133 103.61 49.5627 103.568 49.712C103.525 49.8507 103.472 49.9787 103.408 50.096C103.184 50.096 102.954 50.1067 102.72 50.128C102.485 50.1493 102.256 50.1813 102.032 50.224C101.808 50.2667 101.594 50.3147 101.392 50.368C101.2 50.4107 101.034 50.464 100.896 50.528V55.984ZM107.474 53.328C107.474 53.6053 107.559 53.8027 107.73 53.92C107.911 54.0373 108.162 54.096 108.482 54.096C108.642 54.096 108.807 54.0853 108.978 54.064C109.149 54.032 109.298 53.9947 109.426 53.952C109.522 54.0693 109.602 54.2027 109.666 54.352C109.741 54.4907 109.778 54.6613 109.778 54.864C109.778 55.2693 109.623 55.6 109.314 55.856C109.015 56.112 108.482 56.24 107.714 56.24C106.775 56.24 106.05 56.0267 105.538 55.6C105.037 55.1733 104.786 54.48 104.786 53.52V46.672C104.903 46.64 105.069 46.608 105.282 46.576C105.506 46.5333 105.741 46.512 105.986 46.512C106.455 46.512 106.818 46.5973 107.074 46.768C107.341 46.928 107.474 47.2747 107.474 47.808V48.832H109.57C109.634 48.9493 109.693 49.0987 109.746 49.28C109.81 49.4507 109.842 49.6427 109.842 49.856C109.842 50.2293 109.757 50.5013 109.586 50.672C109.426 50.832 109.207 50.912 108.93 50.912H107.474V53.328ZM111.096 46.064C111.096 45.6587 111.229 45.3173 111.496 45.04C111.773 44.7627 112.136 44.624 112.584 44.624C113.032 44.624 113.389 44.7627 113.656 45.04C113.933 45.3173 114.072 45.6587 114.072 46.064C114.072 46.4693 113.933 46.8107 113.656 47.088C113.389 47.3653 113.032 47.504 112.584 47.504C112.136 47.504 111.773 47.3653 111.496 47.088C111.229 46.8107 111.096 46.4693 111.096 46.064ZM113.944 55.984C113.827 56.0053 113.651 56.032 113.416 56.064C113.192 56.1067 112.963 56.128 112.728 56.128C112.493 56.128 112.28 56.112 112.088 56.08C111.907 56.048 111.752 55.984 111.624 55.888C111.496 55.792 111.395 55.664 111.32 55.504C111.256 55.3333 111.224 55.1147 111.224 54.848V48.336C111.341 48.3147 111.512 48.288 111.736 48.256C111.971 48.2133 112.205 48.192 112.44 48.192C112.675 48.192 112.883 48.208 113.064 48.24C113.256 48.272 113.416 48.336 113.544 48.432C113.672 48.528 113.768 48.6613 113.832 48.832C113.907 48.992 113.944 49.2053 113.944 49.472V55.984ZM120.876 55.792C120.726 55.9093 120.508 56.0053 120.22 56.08C119.932 56.1547 119.606 56.192 119.244 56.192C118.828 56.192 118.465 56.1387 118.156 56.032C117.857 55.9253 117.649 55.7547 117.532 55.52C117.436 55.3387 117.318 55.088 117.18 54.768C117.052 54.4373 116.913 54.0747 116.764 53.68C116.614 53.2747 116.46 52.8427 116.3 52.384C116.14 51.9253 115.985 51.472 115.836 51.024C115.697 50.576 115.569 50.144 115.452 49.728C115.334 49.312 115.238 48.944 115.164 48.624C115.313 48.4747 115.51 48.3467 115.756 48.24C116.012 48.1227 116.289 48.064 116.588 48.064C116.961 48.064 117.265 48.144 117.5 48.304C117.745 48.4533 117.926 48.7413 118.044 49.168L118.668 51.616C118.785 52.096 118.897 52.5333 119.004 52.928C119.11 53.312 119.19 53.6107 119.244 53.824H119.324C119.526 53.0347 119.74 52.16 119.964 51.2C120.188 50.24 120.39 49.296 120.572 48.368C120.753 48.272 120.956 48.1973 121.18 48.144C121.414 48.0907 121.638 48.064 121.852 48.064C122.225 48.064 122.54 48.144 122.796 48.304C123.052 48.464 123.18 48.7413 123.18 49.136C123.18 49.3067 123.137 49.5573 123.052 49.888C122.977 50.208 122.876 50.576 122.748 50.992C122.63 51.3973 122.486 51.8293 122.316 52.288C122.156 52.7467 121.99 53.1947 121.82 53.632C121.649 54.0693 121.478 54.48 121.308 54.864C121.148 55.2373 121.004 55.5467 120.876 55.792ZM132.364 52.112C132.364 52.7733 132.263 53.3653 132.06 53.888C131.858 54.4 131.57 54.832 131.196 55.184C130.834 55.536 130.396 55.8027 129.884 55.984C129.372 56.1653 128.802 56.256 128.172 56.256C127.543 56.256 126.972 56.16 126.46 55.968C125.948 55.776 125.506 55.504 125.132 55.152C124.77 54.7893 124.487 54.352 124.284 53.84C124.082 53.328 123.98 52.752 123.98 52.112C123.98 51.4827 124.082 50.912 124.284 50.4C124.487 49.888 124.77 49.456 125.132 49.104C125.506 48.7413 125.948 48.464 126.46 48.272C126.972 48.08 127.543 47.984 128.172 47.984C128.802 47.984 129.372 48.0853 129.884 48.288C130.396 48.48 130.834 48.7573 131.196 49.12C131.57 49.472 131.858 49.904 132.06 50.416C132.263 50.928 132.364 51.4933 132.364 52.112ZM126.764 52.112C126.764 52.7627 126.887 53.264 127.132 53.616C127.388 53.9573 127.74 54.128 128.188 54.128C128.636 54.128 128.978 53.952 129.212 53.6C129.458 53.248 129.58 52.752 129.58 52.112C129.58 51.472 129.458 50.9813 129.212 50.64C128.967 50.288 128.62 50.112 128.172 50.112C127.724 50.112 127.378 50.288 127.132 50.64C126.887 50.9813 126.764 51.472 126.764 52.112ZM140.251 53.68C140.251 54.4907 139.947 55.1253 139.339 55.584C138.731 56.0427 137.835 56.272 136.651 56.272C136.203 56.272 135.787 56.24 135.403 56.176C135.019 56.112 134.689 56.016 134.411 55.888C134.145 55.7493 133.931 55.5787 133.771 55.376C133.622 55.1733 133.547 54.9333 133.547 54.656C133.547 54.4 133.601 54.1867 133.707 54.016C133.814 53.8347 133.942 53.6853 134.091 53.568C134.401 53.7387 134.753 53.8933 135.147 54.032C135.553 54.16 136.017 54.224 136.539 54.224C136.87 54.224 137.121 54.176 137.291 54.08C137.473 53.984 137.563 53.856 137.563 53.696C137.563 53.5467 137.499 53.4293 137.371 53.344C137.243 53.2587 137.03 53.1893 136.731 53.136L136.251 53.04C135.323 52.8587 134.63 52.576 134.171 52.192C133.723 51.7973 133.499 51.2373 133.499 50.512C133.499 50.1173 133.585 49.76 133.755 49.44C133.926 49.12 134.166 48.8533 134.475 48.64C134.785 48.4267 135.153 48.2613 135.579 48.144C136.017 48.0267 136.497 47.968 137.019 47.968C137.414 47.968 137.782 48 138.123 48.064C138.475 48.1173 138.779 48.2027 139.035 48.32C139.291 48.4373 139.494 48.592 139.643 48.784C139.793 48.9653 139.867 49.184 139.867 49.44C139.867 49.6853 139.819 49.8987 139.723 50.08C139.638 50.2507 139.526 50.3947 139.387 50.512C139.302 50.4587 139.174 50.4053 139.003 50.352C138.833 50.288 138.646 50.2347 138.443 50.192C138.241 50.1387 138.033 50.096 137.819 50.064C137.617 50.032 137.43 50.016 137.259 50.016C136.907 50.016 136.635 50.0587 136.443 50.144C136.251 50.2187 136.155 50.3413 136.155 50.512C136.155 50.6293 136.209 50.7253 136.315 50.8C136.422 50.8747 136.625 50.944 136.923 51.008L137.419 51.12C138.443 51.3547 139.169 51.68 139.595 52.096C140.033 52.5013 140.251 53.0293 140.251 53.68Z" fill="white"/>
</svg>
